Coordinates
version=1
nRows=5
nColumns=40
inDegrees=yes

Units are S.I. units (second, meters, Newtons, ...)
Angles are in degrees.

endheader
time	pelvis_tilt	pelvis_list	pelvis_rotation	pelvis_tx	pelvis_ty	pelvis_tz	hip_flexion_r	hip_adduction_r	hip_rotation_r	knee_angle_r	knee_angle_r_beta	ankle_angle_r	subtalar_angle_r	mtp_angle_r	hip_flexion_l	hip_adduction_l	hip_rotation_l	knee_angle_l	knee_angle_l_beta	ankle_angle_l	subtalar_angle_l	mtp_angle_l	lumbar_extension	lumbar_bending	lumbar_rotation	arm_flex_r	arm_add_r	arm_rot_r	elbow_flex_r	pro_sup_r	wrist_flex_r	wrist_dev_r	arm_flex_l	arm_add_l	arm_rot_l	elbow_flex_l	pro_sup_l	wrist_flex_l	wrist_dev_l
      0.22000000	     -3.45111688	      3.40070863	      2.14321779	     -0.84994935	      0.85300851	      0.22865368	      9.45282864	     -3.98472693	     -3.75695887	    -80.46948529	     -1.40445747	    -14.63406126	    -18.68905474	     21.44416294	     28.77967731	     -7.59586918	      9.02008214	    -44.60786343	     -0.77855409	     11.12293261	     -2.52848178	     -1.71734338	     -8.64656752	     -6.44706865	     -0.98792135	    -10.05888601	    -17.17459150	     10.55166322	     91.30420490	     89.95437384	      0.00000000	      0.00000000	    -12.92646246	     34.26109907	    -24.63244018	     76.46122740	     89.95437384	      0.00000000	      0.00000000
      0.23000000	     -2.95284447	      3.71720565	      2.58738671	     -0.82149778	      0.84865541	      0.22889623	     13.19758306	     -4.82779479	     -3.67585440	    -84.76969613	     -1.47951030	    -12.36146549	    -18.75518720	     20.88513247	     26.73938569	     -8.19309811	      8.10548367	    -46.15138452	     -0.80549361	     13.98568186	     -3.24577358	     -3.10201459	     -9.83635646	     -6.90638683	     -2.68346712	     -9.96298906	    -16.77155004	     10.74601776	     87.14809832	     89.95437384	      0.00000000	      0.00000000	     -8.93638715	     33.11739981	    -25.99578699	     74.38856699	     89.95437384	      0.00000000	      0.00000000
      0.24000000	     -3.36630509	      3.92198458	      2.41450792	     -0.79399313	      0.84394420	      0.23013405	     18.41041913	     -5.17124607	     -2.71118966	    -88.63099866	     -1.54690275	    -10.40032676	    -18.72855737	     20.54485786	     25.40140869	     -8.36088836	      7.89712464	    -46.97950657	     -0.81994707	     16.33801860	     -3.59908749	     -4.75448275	     -9.93280576	     -7.21967564	     -3.33428474	    -10.50486641	    -16.34361211	     10.18555822	     83.66794176	     89.95437384	      0.00000000	      0.00000000	     -4.66544175	     31.85954840	    -27.63757182	     72.50020040	     89.95437384	      0.00000000	      0.00000000
      0.25000000	     -3.62225699	      3.48882565	      2.98844882	     -0.76546265	      0.84045536	      0.22959984	     22.97634046	     -5.02271871	     -2.66752293	    -91.15867015	     -1.59101894	     -8.72530623	    -18.62379812	     20.09300807	     23.50203637	     -8.32984389	      6.65464047	    -47.27172784	     -0.82504729	     18.52808842	     -3.86541438	     -6.51601977	    -10.05591742	     -6.53935607	     -4.41302363	    -11.78450126	    -16.13264250	      8.88698961	     81.29216519	     89.95437384	      0.00000000	      0.00000000	     -0.71251039	     30.31274264	    -28.95467309	     71.33317193	     89.95437384	      0.00000000	      0.00000000
      0.26000000	     -3.76054691	      2.95495313	      3.27579976	     -0.73631056	      0.83805897	      0.22960702	     27.30341293	     -4.56404605	     -2.46054215	    -92.79704856	     -1.61961403	     -7.28968439	    -18.50718659	     19.48544494	     21.08837005	     -7.92112514	      5.95059428	    -46.92981052	     -0.81907971	     20.60806288	     -4.26427615	     -7.54392659	    -10.14705120	     -5.73995622	     -5.27376657	    -13.45085465	    -16.07400148	      7.41626600	     80.10143839	     89.95437384	      0.00000000	      0.00000000	      2.44841900	     28.74355032	    -29.11830324	     71.38145343	     89.95437384	      0.00000000	      0.00000000
